<svg xmlns="http://www.w3.org/2000/svg" viewBox="0 0 300 150"><title>storeplex</title><path d="M176.11,40a35,35,0,0,0-25.35,58.38l10.06-48.84a3.88,3.88,0,0,1,3.81-3.1h19q9.57,0,14,5.31T200.32,66a23.68,23.68,0,0,1-8.46,14.22,25.1,25.1,0,0,1-16.24,5.32h-11l-4.2,20.4A35,35,0,1,0,176.11,40Z" style="fill:#398fe5"/><path d="M185.2,73.31a13,13,0,0,0,4-7.28q.94-4.56-.95-7.35c-1.26-1.85-3.43-2.78-6.49-2.78h-11L166.56,76h11A11,11,0,0,0,185.2,73.31Z" style="fill:#398fe5"/><path d="M28.21,85.32a4.07,4.07,0,0,0,1.94-2.82,3.1,3.1,0,0,0-.8-2.9,10.21,10.21,0,0,0-4.2-2,15.44,15.44,0,0,1-6.72-3.33A5.66,5.66,0,0,1,16.94,69,8.28,8.28,0,0,1,20.7,63.5a13.16,13.16,0,0,1,7.64-2.17c3,0,5.27.81,6.87,2.43a6.24,6.24,0,0,1,1.68,6l-.06.11H32.36a3.87,3.87,0,0,0-.85-3.51A5.07,5.07,0,0,0,27.68,65a7.23,7.23,0,0,0-4.18,1.1,4.21,4.21,0,0,0-1.89,2.79,2.71,2.71,0,0,0,1,2.74,13.81,13.81,0,0,0,4.59,2c2.92.83,5,2,6.3,3.38a6.23,6.23,0,0,1,1.32,5.5A8,8,0,0,1,31.08,88,13.77,13.77,0,0,1,23.37,90a13,13,0,0,1-4.08-.61,9.43,9.43,0,0,1-3.21-1.69A6,6,0,0,1,14.18,85a6.71,6.71,0,0,1-.2-3.61l.07-.1h4.49a3.79,3.79,0,0,0,1,3.76A6.55,6.55,0,0,0,24,86.34v0A7.69,7.69,0,0,0,28.21,85.32Z" style="fill:#050505"/><path d="M62.45,61.69l-.66,3.73H53.35L49.09,89.59H44.43l4.26-24.17H40.25l.66-3.73Z" style="fill:#050505"/><path d="M85.3,73.17l-.88,5a14.25,14.25,0,0,1-4.72,8.51A13,13,0,0,1,70.84,90q-5.07,0-7.62-3.33T61.58,78.2l.89-5a14.38,14.38,0,0,1,4.64-8.5,12.64,12.64,0,0,1,8.71-3.34,10.41,10.41,0,0,1,5.75,1.53,8.19,8.19,0,0,1,3.36,4.23A11.78,11.78,0,0,1,85.3,73.17Zm-5.53,5,.9-5.07a7.68,7.68,0,0,0-.87-5.76,5.18,5.18,0,0,0-4.6-2.21,7.16,7.16,0,0,0-5.28,2.21,10.59,10.59,0,0,0-2.8,5.76l-.9,5.07A8,8,0,0,0,67,84a4.92,4.92,0,0,0,4.52,2.23A7.38,7.38,0,0,0,76.88,84,10.34,10.34,0,0,0,79.77,78.2Z" style="fill:#050505"/><path d="M100.34,78h-6.2l-2,11.58H87.43l4.92-27.9h10.31q4.71,0,6.88,2.1c1.44,1.4,1.93,3.4,1.47,6q-.77,4.32-5.49,6.24c2.79.93,3.88,3.14,3.27,6.6L108.38,85c-.36,2-.16,3.43.6,4.18l-.07.44h-4.8q-1-1-.39-4.66l.4-2.24a4.19,4.19,0,0,0-.62-3.43A3.82,3.82,0,0,0,100.34,78Zm-4-12.59L94.8,74.28h5.41a7.25,7.25,0,0,0,4.27-1.07A4.86,4.86,0,0,0,106.34,70a3.75,3.75,0,0,0-.69-3.36A4.81,4.81,0,0,0,102,65.42Z" style="fill:#050505"/><path d="M133.17,73.3,132.51,77H120.3l-1.56,8.84h14.17l-.66,3.72H113.42l4.92-27.9h18.71l-.66,3.73h-14L121,73.3Z" style="fill:#050505"/><path d="M225.07,61.33l-4.33,24.56h13l-.67,3.78H215.34l5-28.34Z" style="fill:#050505"/><path d="M257,73.12l-.67,3.79H243.9l-1.59,9H256.7L256,89.67H236.91l5-28.34h19l-.67,3.78H246l-1.42,8Z" style="fill:#050505"/><path d="M268.65,61.33l4.08,10.47,7.82-10.47h5.62L275,75.37l6.54,14.3h-5.69L271.54,79l-8,10.64h-5.61l11.44-14.3-6.24-14Z" style="fill:#050505"/></svg>