<svg xmlns="http://www.w3.org/2000/svg" viewBox="0 0 300 150"><title>ebay</title><path d="M97.55 59c-10 0-18.24 4.19-18.24 17 0 10.08 5.55 16.43 18.58 16.43 15.29 0 16.2-10.09 16.2-10.09h-7.37s-1.58 5.44-9.29 5.44c-6.23 0-10.76-4.19-10.76-10.19h28.21v-3.72c0-5.78-3.74-14.87-17.33-14.87zm-.23 4.75c6 0 10.08 3.63 10.08 9.18H86.78c0-5.86 5.33-9.15 10.54-9.15z" fill="#4c4c4c"/><path d="M114.88 46.68V86.1c0 2.27-.11 5.33-.11 5.33h7s.23-2.27.23-4.31c0 0 3.51 5.44 12.91 5.44 10 0 16.77-6.91 16.77-16.88 0-9.18-6.23-16.65-16.77-16.65C125.08 59 122 64.35 122 64.35V46.68zM133.12 64c6.8 0 11.1 5 11.1 11.78 0 7.25-5 12-11 12-7.25 0-11.1-5.66-11.1-11.89C122 70 125.53 64 133.12 64z" fill="#4c4c4c"/><path d="M169.15 59c-15 0-16 8.27-16 9.51h7.48s.34-4.76 7.93-4.76c5 0 8.72 2.27 8.72 6.58v1.58h-8.72c-11.67 0-17.79 3.4-17.79 10.31s5.67 10.54 13.37 10.54C174.58 92.79 178 87 178 87c0 2.26.23 4.53.23 4.53h6.68s-.22-2.83-.22-4.64V71.37C184.55 61.18 176.4 59 169.15 59zm8.27 17.56v2c0 2.71-1.7 9.4-11.45 9.4-5.32 0-7.59-2.72-7.59-5.78 0-5.66 7.71-5.66 19-5.66z" fill="#4c4c4c"/><path d="M180.59 60.27H189l12 24.13 12.1-24.13h7.59l-21.86 43h-7.93l6.34-12z" fill="#4c4c4c"/></svg>