<svg xmlns="http://www.w3.org/2000/svg" viewBox="0 0 100 100"><defs><linearGradient id="a" x1="5" y1="50" x2="95" y2="50" gradientUnits="userSpaceOnUse"><stop offset="0" stop-color="#2cb0bb"/><stop offset="1" stop-color="#374291"/></linearGradient><linearGradient id="b" x1="5" y1="50.69" x2="95" y2="50.69" gradientUnits="userSpaceOnUse"><stop offset="0" stop-color="#0c496b"/><stop offset=".44" stop-color="#1560a6"/><stop offset=".69" stop-color="#1662a8"/><stop offset=".85" stop-color="#186bae"/><stop offset=".97" stop-color="#1b79b9"/><stop offset="1" stop-color="#1c7dbc"/></linearGradient></defs><title>imtoken</title><path d="M38.38 78.57c-10.93-.27-20.72-5.3-27.67-15.48A33.19 33.19 0 0 1 5.06 46.2a21.3 21.3 0 0 1 5-15.86 20.82 20.82 0 0 1 14.54-7.46 13.78 13.78 0 0 1 8.63 1.9c4.48 2.71 7.11 8.48 6 13.15a8 8 0 0 1-8.7 6.18c-3.16-.31-5.33-3.93-3.77-6.69 1.67-3 .45-7.09-4.22-7.88s-8.16 2.29-9.35 6.13c-2.16 7 1.19 13.73 8.26 16.54a21.15 21.15 0 0 0 26.74-10A31.16 31.16 0 0 0 51 35a5.18 5.18 0 0 1 2.26-3.26 50.33 50.33 0 0 1 10.27-5.27 69.35 69.35 0 0 1 17.67-4.68 31.74 31.74 0 0 1 12.79.7c.85.25 1.07.65 1.06 1.51a54.1 54.1 0 0 1-13.51 35.2A54.57 54.57 0 0 1 49.4 77.64a60.76 60.76 0 0 1-11.02.93z" fill="url(#a)"/><path d="M38.38 78.57c-10.93-.27-20.72-5.3-27.67-15.48A33.19 33.19 0 0 1 5.06 46.2a21.3 21.3 0 0 1 5-15.86 20.82 20.82 0 0 1 14.54-7.46 13.78 13.78 0 0 1 8.63 1.9 12.94 12.94 0 0 1 4.14 4.09C29.66 21.4 15.9 25 10.68 35.27s.54 26 10.41 32S53 78.35 74.91 59.79C78.59 56.63 93.09 48.32 95 24a54.1 54.1 0 0 1-13.46 35.2A54.57 54.57 0 0 1 49.4 77.64a60.76 60.76 0 0 1-11.02.93z" fill="url(#b)"/><path d="M51.33 33.85a5.35 5.35 0 0 1 1.88-2.14 50.33 50.33 0 0 1 10.27-5.27 69.35 69.35 0 0 1 17.67-4.68 36.73 36.73 0 0 1 9.31-.05c.41.06-7.45-.15-13.51 1.91s-6.9 10.55-14.05 12.17S51.28 34 51.33 33.85z" fill="#23a8c0"/><path d="M51.33 33.85c6-1.43 17-4.05 19.91-5.23-2.16 3-4.18 6.23-8.34 7.17-7.15 1.62-11.62-1.79-11.57-1.94z" fill="#177fbc"/></svg>