<svg xmlns="http://www.w3.org/2000/svg" viewBox="0 0 100 100"><title>metamask</title><path d="M69.59 79.8l-29.42 6.6 6.88-14.34zm19.18-12.47l-5.62 1.31-9.93 13.61 10.3 2.82 5.25-17.74z" fill="#e4761b"/><path d="M92.51 13.32L62.73 35l-.39-14.68z" fill="#e2761b"/><path fill="#e4761b" d="M71.2 45.63l-8.47-10.66 4.49 20.51 13.83-1.52-9.85-8.33z"/><path fill="#763d16" d="M90.7 39.36L89 38l4.15-12.62-.64-12.06-29.78 21.65 8.47 10.66 14.81 4.89 3.4-4.26-1.57-1.21 2.36-2.25-1.91-1.59 2.41-1.85z"/><path d="M78.67 74.79l-2.12-5.2 6.6-1z" fill="#cd6116"/><path fill="#f6851b" d="M86.01 50.52L71.2 45.63l9.85 8.33-4.5 15.63 6.6-.95 5.62-1.31-2.76-16.81z"/><path d="M81.05 54l-4.5 15.63-.36-7.63z" fill="#e4751f"/><path fill="#e4761b" d="M50.88 34.58L18.91 5 40.2 18.52l10.68 16.06z"/><path d="M69.65 65.37l1.12-6.15L76.19 62z" fill="#233447"/><path fill="#e4761b" d="M57.83 55.8l-6.95-21.22-15.59 11.14.99 9.63 21.55.45z"/><path fill="#cd6116" d="M81.05 53.96l-13.83 1.52 2.43 9.89 1.12-6.15 5.42 2.73 4.86-7.99z"/><path fill="#e4761b" d="M33.81 72.7L6.85 73.82 12.4 95l27.77-8.6-6.36-13.7z"/><path d="M40.17 86.4l-6.36-13.7 13.24-.64z" fill="#cd6116"/><path fill="#d7c1b3" d="M69.59 79.8l-29.42 6.6 25.2 4.24 2.86-3.14 1.36-7.7z"/><path fill="#cd6116" d="M36.28 55.35L46 63.7l7.01-3.64 4.13 6.15.69-10.41-21.55-.45z"/><path d="M57.14 66.21L46 63.7l7-3.64z" fill="#233447"/><path d="M18.91 5l-8.49 14.58 1 16.53-1.78 1.63 2.89 2.48-1.94 2 2.86 2.9-1.57 1.52L16 51.91l19.28-6.19 15.6-11.14zm-6.38 35.22z" fill="#763d16"/><path d="M36.28 55.35L46 63.7l1 8.36z" fill="#e4751f"/><path fill="#f6851b" d="M36.28 55.35l-.99-9.63-19.28 6.19-9.16 21.91 26.96-1.12 13.24-.64-10.77-16.71z"/><path fill="#e4751f" d="M57.14 66.21l13.91 12.28-10.58-16.11-2.64-6.58-.69 10.41z"/><path fill="#f6851b" d="M71.05 78.49L57.14 66.21 46 63.7l1.05 8.36 22.54 7.74 1.46-1.31z"/><path fill="#c0ad9e" d="M70.34 86.66l-2.11.84-2.86 3.14-25.2-4.24 7.25 2.84 19.14 4.62 11.15-1.81 3.44-6.9-10.81 1.51z"/><path fill="#161616" d="M81.69 79.2l-2.64-1.62-8 .91-1.46 1.31-1.36 7.7 2.11-.84 10.81-1.51 1.36-4.9-.82-1.05z"/><path fill="#f6851b" d="M76.55 69.59l-.36-7.64-5.37 2.81-1.84-2.87-1.76-6.41-4.49-20.51-.39-14.68-22.14-1.77 10.68 16.06 6.95 21.22 2.64 6.58 10.58 16.11 8-.91 1.2.73-3.7-8.72z"/></svg>