<svg xmlns="http://www.w3.org/2000/svg" viewBox="0 0 300 150"><title>amazon</title><path d="M45,52.13c3.55-7.1,12.49-6.61,15.18.25,1.47-3.06,3.8-5,7.11-5.27,4.77-.49,8.57,2.33,8.94,7.1.49,6,.12,12,.12,18v5.52c0,1.22-.49,1.83-1.84,1.83a22.71,22.71,0,0,0-4,0c-1.84.12-2.2-.73-2.2-2.32.12-5.39,0-10.78,0-16.17,0-1.1-.13-2.33-.13-3.43-.12-1.59-.85-2.81-2.45-3.06a3.78,3.78,0,0,0-4.16,1.84A5.12,5.12,0,0,0,61,59.11c0,6-.12,11.88-.12,17.88,0,2.45-.13,2.57-2.58,2.57a32.51,32.51,0,0,0-3.42,0c-1.47.12-2-.49-2-2V61.44a20,20,0,0,0-.25-3.92,3.19,3.19,0,0,0-3.06-3.06A3.55,3.55,0,0,0,45.77,57,10.45,10.45,0,0,0,45.28,61c0,5.39-.12,10.9,0,16.29,0,1.71-.36,2.44-2.2,2.32a22.71,22.71,0,0,0-4,0c-1.35.12-1.84-.61-1.84-1.83V49.44c0-1.35.61-2,2-1.84h1.1C44.67,47.6,44.67,47.6,45,52.13Z" style="fill:#4c4c4c"/><path d="M177.05,52.5c1.71-3.92,4.53-5.88,8.81-5.51a7.42,7.42,0,0,1,6.86,6.24,31.54,31.54,0,0,1,.49,5.88c0,6-.12,12,0,18,0,1.84-.61,2.45-2.45,2.33a28.09,28.09,0,0,0-3.18,0c-2.33,0-2.45,0-2.45-2.45V60.46a10.85,10.85,0,0,0-.37-3.43c-.37-1.47-1.1-2.57-2.82-2.69a3.53,3.53,0,0,0-3.67,1.83,11.19,11.19,0,0,0-1.22,5.64c0,5.14-.13,10.28,0,15.43,0,1.59-.49,2.32-2.21,2.2a20,20,0,0,0-3.79,0c-1.6.12-2.09-.61-2.09-2.08V49.44c0-1.35.49-2.08,2-2h.62C176.68,47.6,176.68,47.6,177.05,52.5Z" style="fill:#4c4c4c"/><path d="M261.78,52c2.33-3.31,5-5.63,9.31-5.14,3.67.49,5.51,3.06,6.61,6.36.62-.12.62-.61.74-.85,2.32-4.17,5.88-6.13,9.67-5.39s6.61,4,6.74,8.82c.24,7.47.12,14.94.12,22.41,0,2.2-1.84,1.22-2.82,1.34-1.34.25-1.71-.49-1.71-1.71V59.6a12.42,12.42,0,0,0-.49-4.28c-.61-2.09-1.72-3.68-3.92-4.17s-3.67.61-4.9,2.21a10.06,10.06,0,0,0-2.45,6.85c0,5.88-.12,11.64,0,17.52,0,1.71-.73,2.2-2.2,2.08S274,79.68,274,77.73c.12-5.76,0-11.52,0-17.27a24,24,0,0,0-.25-4.29,5.48,5.48,0,0,0-4-4.77c-2.32-.61-4,.73-5.38,2.45a8.52,8.52,0,0,0-2,5.63c-.13,6-.13,11.88-.13,17.88a2.63,2.63,0,0,1-4,2.45c-.61-.37-.61-.86-.61-1.47V49.68c0-1.59,1-1.59,2.2-1.59s2.21,0,2.21,1.59A6.33,6.33,0,0,0,261.78,52Z" style="fill:#4c4c4c"/><path d="M80.06,103.32A72.3,72.3,0,0,1,32.92,85.07L32.79,85c-.61-.49-1.34-1-.73-1.84s1.22-.12,1.84.13a80.67,80.67,0,0,0,9.18,4.53c25.1,10.53,50.33,11,75.68,1.22.49-.12,1-.37,1.47-.49a1.6,1.6,0,0,1,2.32.49c.62,1-.12,1.72-.85,2.21a58.73,58.73,0,0,1-10.41,5.87A77.39,77.39,0,0,1,80.06,103.32Z" style="fill:#4c4c4c"/><path d="M125,54h-8.94c-1.47,0-2.2-.49-2.2-2.08.12-5.15-.37-4.29,4.28-4.41H133c1.59,0,2.21.37,2.21,2.08a8.77,8.77,0,0,1-1.84,6c-3.18,4.29-6.25,8.82-9.43,13.35,2,.37,3.8.12,5.51.61a10.44,10.44,0,0,1,1.84.49c4.41,1.35,5.39,3.06,4.53,7.59-.25,1.23-.86,1.35-2,.86a22.07,22.07,0,0,0-19.23,0c-1.22.61-1.83.12-1.83-1-.13-3.18-.25-6.12,2-8.94C118.39,63.89,121.45,59,125,54Z" style="fill:#4c4c4c"/><path d="M203.37,63.89A23.81,23.81,0,0,1,205.21,54q3.49-7.71,11.39-7c4.41.37,8,3.8,9.18,8.82l.37,1.47c.24,1-.25,1.34-1.22,1.46-2.45.25-2.82,0-3.68-2.57-1.47-4.9-6-6.73-9.43-3.92a6.32,6.32,0,0,0-2.2,3.19,23.62,23.62,0,0,0,.12,16.16c1,2.45,2.69,4.29,5.51,4.29s4.53-1.84,5.63-4.41c.13-.37.25-.86.37-1.22.61-2.09,2-2.7,4-2.09.61.25,1,.62.86,1.23C225.29,73.32,223.82,77,220,79a10,10,0,0,1-10.41-.37c-3.55-2.2-4.9-5.88-5.76-9.79A25.19,25.19,0,0,1,203.37,63.89Z" style="fill:#4c4c4c"/><path d="M120.84,84.71c-2.08.12-4.16.36-6.25.48-.61,0-1.47.37-1.71-.36s.61-1.1,1.22-1.47a15.27,15.27,0,0,1,6.37-2.21,21.34,21.34,0,0,1,8.82.25c1.35.37,2.08,1,2.08,2.45a20.19,20.19,0,0,1-5.88,14.33c-.49.48-1,1.34-1.71.85s-.12-1.34.12-2a56.16,56.16,0,0,0,2.45-7.71c.73-3.55,0-4.41-3.55-4.65a5.37,5.37,0,0,1-2,0Z" style="fill:#4c4c4c"/><path d="M202.64,77.24a2.86,2.86,0,0,1-2.94,2.69,2.78,2.78,0,0,1-2.82-2.82,2.52,2.52,0,0,1,2.82-2.57A2.79,2.79,0,0,1,202.64,77.24Z" style="fill:#4c4c4c"/><path d="M32.3,73.44a7.49,7.49,0,0,1-1.71-5.51c.12-1.72,0-3.43,0-5.51-.12-2.33.12-5.14-.25-7.84a7.89,7.89,0,0,0-5-6.61,16.52,16.52,0,0,0-13.83.49,9.5,9.5,0,0,0-5,5.88c-.62,2-.37,2.32,1.59,2.69l3.55.37c1.1.24,1.71-.25,2.08-1.35a4.48,4.48,0,0,1,5.14-3.18c2.45.24,3.31,1.83,3.31,5,0,1.59-3.67,1.71-4.16,1.83-3.31.49-6.49.86-9.19,3.07-3.18,2.44-4.16,5.75-3.67,9.67.37,3.18,2,5.76,5.14,6.86a11.69,11.69,0,0,0,10-1.1c1.11-.62,2.09-2.21,2.94-2.09s1.59,1.72,2.45,2.57c1,1.11,2,1.23,3.06.13a19.86,19.86,0,0,1,3.06-2.57C33.28,75.4,33.16,74.54,32.3,73.44ZM22.39,66.7a9.21,9.21,0,0,1-.74,4c-1,2.2-2.82,3.55-4.53,3.3a3.27,3.27,0,0,1-3.06-2.45,5.44,5.44,0,0,1,1.71-6c1.72-1.34,3.8-1.47,5.88-1.59.61,0,.74.25.74.73Z" style="fill:#4c4c4c"/><path d="M108.47,73.32a7.73,7.73,0,0,1-1.71-5.15V62.3c-.13-2.33.12-4.9-.25-7.6-.37-3.3-2-5.63-5-6.73A16.15,16.15,0,0,0,88,48.34a9.45,9.45,0,0,0-5.39,6.73c-.24,1.23.13,1.84,1.35,2a30.72,30.72,0,0,1,3.43.37c1.59.37,2.45,0,2.94-1.59.85-2.7,4.28-3.68,6.61-2.33a4.83,4.83,0,0,1,1.59,5.26c-.37.74-3.55.86-3.92,1-3.3.49-6.49.86-9.3,2.94-3.31,2.45-4.29,5.88-3.8,9.8.37,3.18,1.84,5.63,5,6.73a11.23,11.23,0,0,0,10-1c1.1-.62,2-2.09,2.94-2.21,1.23,0,1.72,1.84,2.57,2.69,1.11,1,1.84,1.11,2.94,0a21.06,21.06,0,0,1,3.06-2.57C109.57,75.4,109.45,74.42,108.47,73.32Zm-9.8-6.25a8.59,8.59,0,0,1-.73,3.68c-.86,2-2.2,3.3-4.41,3.42a3.15,3.15,0,0,1-3.06-2,5.65,5.65,0,0,1,.73-5.87c1.84-2,4.41-2.08,6.86-2.33.49,0,.61.37.61.73Z" style="fill:#4c4c4c"/><path d="M162.11,52.87a12.07,12.07,0,0,0-20.94.24,21.93,21.93,0,0,0-2.58,10.41,23.64,23.64,0,0,0,2.09,9.55c2.2,4.41,5.75,7,10.77,7.1a11.52,11.52,0,0,0,11-6.24C166.15,67,166.15,59.72,162.11,52.87ZM155.86,70c-.12.49-.37,1-.49,1.47a3.82,3.82,0,0,1-3.67,2.57c-1.72,0-2.7-1.1-3.43-2.57-1.1-2.69-1.1-5.39-1.1-8.2a20.85,20.85,0,0,1,.73-6.74c.74-2.33,2.08-3.31,4-3.31s3.19,1,3.68,3.43A30.62,30.62,0,0,1,155.86,70Z" style="fill:#4c4c4c"/><path d="M251.74,52.87c-4.28-8-14.94-8.21-19.83-.62-2.33,3.68-2.94,7.72-2.94,12a24.71,24.71,0,0,0,1.71,8.44c1.84,4.29,4.9,7.23,9.8,7.47a11.09,11.09,0,0,0,11.14-6.36A21.6,21.6,0,0,0,251.74,52.87Zm-3.92,18.37C246.6,74.3,244,76.13,241.46,76s-5.15-2.08-6.13-5.26a24.8,24.8,0,0,1-.12-14.33,8.65,8.65,0,0,1,.61-1.59c1.23-2.33,3.07-3.92,5.76-4a6.58,6.58,0,0,1,5.88,3.91,16.31,16.31,0,0,1,1.59,8.7A17,17,0,0,1,247.82,71.24Z" style="fill:#4c4c4c"/></svg>