<svg xmlns="http://www.w3.org/2000/svg" viewBox="0 0 100 100"><title>metamask</title><path d="M69.59,79.8,40.17,86.4l6.88-14.34Z" style="fill:#e4761b"/><polygon points="88.77 67.33 88.77 67.33 88.77 67.33 88.77 67.33 83.15 68.64 73.22 82.25 83.52 85.07 88.77 67.33 88.77 67.33" style="fill:#e4761b"/><path d="M92.51,13.32,62.73,35l-.39-14.68Z" style="fill:#e2761b"/><polygon points="71.2 45.63 62.73 34.97 67.22 55.48 81.05 53.96 71.2 45.63" style="fill:#e4761b"/><polygon points="90.7 39.36 89 38 89 38 93.15 25.38 92.51 13.32 62.73 34.97 71.2 45.63 71.2 45.63 71.2 45.63 86.01 50.52 89.41 46.26 87.84 45.05 90.2 42.8 88.29 41.21 88.29 41.21 88.29 41.21 90.7 39.36" style="fill:#763d16"/><path d="M78.67,74.79l-2.12-5.2,6.6-1Z" style="fill:#cd6116"/><polygon points="86.01 50.52 71.2 45.63 81.05 53.96 81.05 53.96 81.05 53.96 76.55 69.59 83.15 68.64 88.77 67.33 86.01 50.52" style="fill:#f6851b"/><path d="M81.05,54l-4.5,15.63L76.19,62Z" style="fill:#e4751f"/><polygon points="50.88 34.58 18.91 5 40.2 18.52 50.88 34.58" style="fill:#e4761b"/><path d="M69.65,65.37l1.12-6.15L76.19,62Z" style="fill:#233447"/><polygon points="57.83 55.8 50.88 34.58 35.29 45.72 36.28 55.35 57.83 55.8 57.83 55.8 57.83 55.8" style="fill:#e4761b"/><polygon points="81.05 53.96 67.22 55.48 69.65 65.37 70.77 59.22 76.19 61.95 81.05 53.96" style="fill:#cd6116"/><polygon points="33.81 72.7 6.85 73.82 12.4 95 40.17 86.4 33.81 72.7" style="fill:#e4761b"/><path d="M40.17,86.4,33.81,72.7l13.24-.64Z" style="fill:#cd6116"/><polygon points="69.59 79.8 40.17 86.4 40.17 86.4 65.37 90.64 68.23 87.5 69.59 79.8" style="fill:#d7c1b3"/><polygon points="36.28 55.35 46 63.7 53.01 60.06 57.14 66.21 57.83 55.8 36.28 55.35" style="fill:#cd6116"/><path d="M57.14,66.21,46,63.7l7-3.64Z" style="fill:#233447"/><path d="M18.91,5,10.42,19.58h0l1,16.53h0L9.64,37.74l2.89,2.48-1.94,2,2.86,2.9-1.57,1.52L16,51.91h0l19.28-6.19h0L50.88,34.58ZM12.53,40.22Z" style="fill:#763d16"/><path d="M36.28,55.35,46,63.7l1,8.36Z" style="fill:#e4751f"/><polygon points="36.28 55.35 35.29 45.72 16.01 51.91 6.85 73.82 33.81 72.7 47.05 72.06 36.28 55.35" style="fill:#f6851b"/><polygon points="57.14 66.21 71.05 78.49 60.47 62.38 60.47 62.38 57.83 55.8 57.14 66.21 57.14 66.21 57.14 66.21 57.14 66.21 57.14 66.21" style="fill:#e4751f"/><polygon points="71.05 78.49 57.14 66.21 57.14 66.21 57.14 66.21 46 63.7 47.05 72.06 69.59 79.8 69.59 79.8 71.05 78.49" style="fill:#f6851b"/><polygon points="70.34 86.66 70.34 86.66 70.34 86.66 68.23 87.5 65.37 90.64 40.17 86.4 47.42 89.24 66.56 93.86 66.56 93.86 66.56 93.86 66.56 93.86 66.56 93.86 77.71 92.05 81.15 85.15 70.34 86.66" style="fill:#c0ad9e"/><polygon points="81.69 79.2 79.05 77.58 71.05 78.49 71.05 78.49 69.59 79.8 68.23 87.5 70.34 86.66 81.15 85.15 82.51 80.25 81.69 79.2" style="fill:#161616"/><polygon points="76.55 69.59 76.19 61.95 70.82 64.76 68.98 61.89 68.98 61.89 67.22 55.48 67.22 55.48 62.73 34.97 62.34 20.29 40.2 18.52 50.88 34.58 50.88 34.58 50.88 34.58 57.83 55.8 60.47 62.38 71.05 78.49 79.05 77.58 80.25 78.31 76.55 69.59" style="fill:#f6851b"/></svg>