<svg xmlns="http://www.w3.org/2000/svg" xmlns:xlink="http://www.w3.org/1999/xlink" viewBox="0 0 100 100"><defs><linearGradient id="a" x1="79.24" y1="-184.97" x2="-2.63" y2="-305.46" gradientTransform="matrix(1, 0, 0, -1, 0, -178)" gradientUnits="userSpaceOnUse"><stop offset="0" stop-color="#1abc9c"/><stop offset="1" stop-color="#1a5daf"/></linearGradient><linearGradient id="b" x1="49.91" y1="-183.5" x2="37.28" y2="-267.83" xlink:href="#a"/><linearGradient id="c" x1="63.45" y1="-185.53" x2="50.81" y2="-269.87" xlink:href="#a"/></defs><title>myetherwallet</title><circle cx="50" cy="50" r="45" style="fill:url(#a)"/><circle cx="50" cy="50" r="45" style="fill:none"/><path d="M53.29,67.58A14.57,14.57,0,0,1,50,68c-7.85,0-14.53-6-15-14.85a27.35,27.35,0,0,1,.8-5L23.62,43A31.24,31.24,0,0,0,21.71,53.8c0,15.21,13,27.55,28.25,27.55a27.58,27.58,0,0,0,10.22-2Z" style="fill:url(#b)"/><path d="M50,24.69a27.31,27.31,0,0,0-11.46,2.49l6.83,11.61A14.32,14.32,0,0,1,50,38c7,0,14.32,5.82,15,13l-19.76.09L76.07,64.2a28.08,28.08,0,0,0,2.14-11.7C78.21,37.34,65.22,24.69,50,24.69Z" style="fill:url(#c)"/><path d="M53.29,64.57A14.57,14.57,0,0,1,50,65c-7.85,0-14.53-6-15-14.85a27.35,27.35,0,0,1,.8-5L23.62,39.9a31.28,31.28,0,0,0-1.91,10.83c0,15.22,13,27.55,28.25,27.55a27.51,27.51,0,0,0,10.22-2ZM50,21.72a27.31,27.31,0,0,0-11.46,2.49l6.83,11.62A14.07,14.07,0,0,1,50,35.05c7,0,14.32,5.82,15,13l-19.76.08L76.07,61.25a28.08,28.08,0,0,0,2.14-11.7C78.21,34.28,65.22,21.72,50,21.72Z" style="fill:#fff"/></svg>