<svg xmlns="http://www.w3.org/2000/svg" viewBox="0 0 300 150"><title>storeplex</title><path d="M176.11 40a35 35 0 0 0-25.35 58.38l10.06-48.84a3.88 3.88 0 0 1 3.81-3.1h19q9.57 0 14 5.31T200.32 66a23.68 23.68 0 0 1-8.46 14.22 25.1 25.1 0 0 1-16.24 5.32h-11l-4.2 20.4A35 35 0 1 0 176.11 40z" fill="#398fe5"/><path d="M185.2 73.31a13 13 0 0 0 4-7.28q.94-4.56-.95-7.35c-1.26-1.85-3.43-2.78-6.49-2.78h-11l-4.2 20.1h11a11 11 0 0 0 7.64-2.69z" fill="#398fe5"/><path d="M28.21 85.32a4.07 4.07 0 0 0 1.94-2.82 3.1 3.1 0 0 0-.8-2.9 10.21 10.21 0 0 0-4.2-2 15.44 15.44 0 0 1-6.72-3.33A5.66 5.66 0 0 1 16.94 69a8.28 8.28 0 0 1 3.76-5.5 13.16 13.16 0 0 1 7.64-2.17c3 0 5.27.81 6.87 2.43a6.24 6.24 0 0 1 1.68 6l-.06.11h-4.47a3.87 3.87 0 0 0-.85-3.51A5.07 5.07 0 0 0 27.68 65a7.23 7.23 0 0 0-4.18 1.1 4.21 4.21 0 0 0-1.89 2.79 2.71 2.71 0 0 0 1 2.74 13.81 13.81 0 0 0 4.59 2c2.92.83 5 2 6.3 3.38a6.23 6.23 0 0 1 1.32 5.5A8 8 0 0 1 31.08 88a13.77 13.77 0 0 1-7.71 2 13 13 0 0 1-4.08-.61 9.43 9.43 0 0 1-3.21-1.69 6 6 0 0 1-1.9-2.7 6.71 6.71 0 0 1-.2-3.61l.07-.1h4.49a3.79 3.79 0 0 0 1 3.76A6.55 6.55 0 0 0 24 86.34a7.69 7.69 0 0 0 4.21-1.02zm34.24-23.63l-.66 3.73h-8.44l-4.26 24.17h-4.66l4.26-24.17h-8.44l.66-3.73zM85.3 73.17l-.88 5a14.25 14.25 0 0 1-4.72 8.51A13 13 0 0 1 70.84 90q-5.07 0-7.62-3.33t-1.64-8.47l.89-5a14.38 14.38 0 0 1 4.64-8.5 12.64 12.64 0 0 1 8.71-3.34 10.41 10.41 0 0 1 5.75 1.53 8.19 8.19 0 0 1 3.36 4.23 11.78 11.78 0 0 1 .37 6.05zm-5.53 5l.9-5.07a7.68 7.68 0 0 0-.87-5.76 5.18 5.18 0 0 0-4.6-2.21 7.16 7.16 0 0 0-5.28 2.21 10.59 10.59 0 0 0-2.8 5.76l-.9 5.07A8 8 0 0 0 67 84a4.92 4.92 0 0 0 4.52 2.23A7.38 7.38 0 0 0 76.88 84a10.34 10.34 0 0 0 2.89-5.8zm20.57-.17h-6.2l-2 11.58h-4.71l4.92-27.9h10.31q4.71 0 6.88 2.1c1.44 1.4 1.93 3.4 1.47 6q-.77 4.32-5.49 6.24c2.79.93 3.88 3.14 3.27 6.6l-.41 2.38c-.36 2-.16 3.43.6 4.18l-.07.44h-4.8q-1-1-.39-4.66l.4-2.24a4.19 4.19 0 0 0-.62-3.43 3.82 3.82 0 0 0-3.16-1.29zm-4-12.59l-1.54 8.87h5.41a7.25 7.25 0 0 0 4.27-1.07 4.86 4.86 0 0 0 1.86-3.21 3.75 3.75 0 0 0-.69-3.36 4.81 4.81 0 0 0-3.65-1.22zm36.83 7.89l-.66 3.7H120.3l-1.56 8.84h14.17l-.66 3.72h-18.83l4.92-27.9h18.71l-.66 3.73h-14L121 73.3zm91.9-11.97l-4.33 24.56h13l-.67 3.78h-17.73l5-28.34zM257 73.12l-.67 3.79H243.9l-1.59 9h14.39l-.7 3.76h-19.09l5-28.34h19l-.67 3.78H246l-1.42 8zm11.65-11.79l4.08 10.47 7.82-10.47h5.62L275 75.37l6.54 14.3h-5.69L271.54 79l-8 10.64h-5.61l11.44-14.3-6.24-14z" fill="#050505"/></svg>